<?xml version="1.0" encoding="UTF-8" standalone="no"?>
<!DOCTYPE svg PUBLIC "-//W3C//DTD SVG 1.1//EN" "http://www.w3.org/Graphics/SVG/1.1/DTD/svg11.dtd">
<svg xmlns="http://www.w3.org/2000/svg" version="1.1" viewBox="0.00 0.00 800.00 800.00">
<g stroke-width="2.00" fill="none" stroke-linecap="butt">
<path stroke="#0d7ca9" vector-effect="non-scaling-stroke" d="
  M 668.27 330.85
  Q 657.49 333.00 648.41 339.22
  A 1.44 1.44 0.0 0 0 648.76 341.77
  L 651.07 342.55"
/>
<path stroke="#0e5d94" vector-effect="non-scaling-stroke" d="
  M 625.79 367.91
  L 619.62 361.01
  Q 619.49 360.86 619.30 360.94
  Q 619.18 361.00 619.06 361.07"
/>
<path stroke="#0d7ca9" vector-effect="non-scaling-stroke" d="
  M 614.71 379.61
  Q 611.27 378.18 607.62 381.47
  Q 605.26 383.59 604.96 383.81
  Q 603.09 385.17 601.87 385.62
  Q 599.37 386.56 593.83 387.97
  Q 590.26 388.88 586.96 388.84
  Q 582.93 388.79 579.39 388.21
  Q 568.37 386.39 560.83 378.80
  Q 548.10 365.97 531.70 348.05
  Q 524.94 340.65 513.70 333.80"
/>
<path stroke="#0b536d" vector-effect="non-scaling-stroke" d="
  M 545.37 367.91
  L 538.57 360.74"
/>
<path stroke="#396450" vector-effect="non-scaling-stroke" d="
  M 692.17 482.61
  Q 696.93 474.03 703.93 467.58
  Q 705.07 466.52 703.66 467.17
  Q 694.27 471.49 688.41 480.82"
/>
<path stroke="#0e5d94" vector-effect="non-scaling-stroke" d="
  M 690.85 485.29
  Q 688.86 484.96 687.76 482.45"
/>
</g>
<path fill="#0c3458" d="
  M 120.26 258.15
  L 82.15 278.70
  Q 80.92 279.37 80.91 277.97
  L 80.86 245.76
  A 0.67 0.65 79.8 0 1 81.28 245.14
  L 131.28 225.73
  A 0.58 0.58 0.0 0 1 132.07 226.27
  L 132.05 244.73
  A 0.72 0.71 -90.0 0 0 132.76 245.45
  Q 149.40 245.36 166.25 245.49
  Q 181.56 245.62 198.70 250.94
  Q 208.14 253.87 216.46 258.76
  Q 243.98 274.90 253.25 306.23
  Q 262.15 336.31 253.23 368.70
  Q 250.72 377.82 245.83 386.80
  Q 230.42 415.09 198.36 425.75
  Q 182.06 431.17 162.63 431.23
  Q 142.36 431.29 121.52 431.27
  A 0.55 0.55 0.0 0 1 120.97 430.72
  L 120.93 258.55
  A 0.45 0.45 0.0 0 0 120.26 258.15
  Z
  M 148.79 349.44
  L 168.00 353.17
  A 1.02 1.02 0.0 0 0 169.21 352.19
  L 169.81 320.51
  Q 169.83 319.22 168.74 319.91
  L 166.01 321.66
  Q 165.36 322.08 165.34 322.84
  Q 165.23 326.97 165.07 331.08
  Q 165.06 331.30 164.84 331.25
  Q 164.77 331.23 164.73 331.16
  Q 164.47 330.59 164.48 331.22
  Q 164.56 339.47 164.12 347.84
  Q 164.11 347.96 164.00 347.96
  L 164.00 347.96
  Q 163.87 347.96 163.87 347.83
  Q 163.39 335.98 162.97 324.11
  Q 162.94 323.25 162.20 323.70
  L 158.31 326.06
  Q 157.56 326.52 157.54 327.39
  Q 157.36 336.16 157.03 345.44
  Q 157.03 345.50 156.97 345.52
  Q 156.92 345.53 156.88 345.50
  Q 156.84 345.46 156.84 345.40
  Q 156.47 336.62 156.16 328.05
  A 0.47 0.47 0.0 0 0 155.46 327.66
  L 150.87 330.30
  Q 150.22 330.68 150.14 331.43
  L 149.81 334.72
  Q 149.73 335.49 149.59 334.73
  Q 149.32 333.25 149.39 331.81
  A 0.46 0.46 0.0 0 0 148.69 331.40
  L 144.72 333.87
  A 0.06 0.06 0.0 0 1 144.63 333.80
  Q 144.67 333.67 144.79 333.57
  Q 146.48 332.23 148.22 331.26
  Q 149.23 330.70 149.20 329.44
  Q 149.20 329.31 149.17 327.92
  Q 149.14 326.61 148.15 327.46
  Q 145.64 329.61 143.43 330.27
  L 169.07 312.72
  Q 169.51 312.42 169.78 311.95
  Q 170.36 310.93 171.47 311.34
  C 172.17 311.60 172.48 312.31 172.65 312.99
  Q 172.78 313.49 173.30 313.53
  Q 175.38 313.68 177.08 314.83
  Q 177.56 315.15 178.03 314.83
  Q 178.37 314.59 178.40 314.17
  Q 178.48 313.19 179.40 313.54
  Q 190.67 317.76 200.70 321.37
  Q 201.83 321.77 203.01 322.18
  A 0.51 0.50 -87.2 0 0 203.67 321.58
  C 198.63 300.81 183.27 289.79 162.62 289.53
  Q 149.25 289.36 132.65 289.48
  Q 132.07 289.49 132.07 290.06
  L 132.08 346.01
  Q 132.08 347.51 133.54 347.83
  Q 149.34 351.26 164.90 354.96
  Q 171.28 356.48 177.64 357.86
  Q 184.04 359.25 190.38 360.86
  Q 195.36 362.12 200.22 362.75
  Q 200.38 362.77 200.50 362.66
  Q 200.74 362.43 200.86 362.14
  Q 201.32 360.99 200.11 360.74
  Q 185.82 357.79 174.08 355.23
  C 169.17 354.16 161.14 352.74 154.73 350.86
  C 152.95 350.33 150.73 350.49 148.79 349.44
  Z
  M 165.86 316.00
  A 0.64 0.64 0.0 0 0 165.56 316.52
  L 165.43 319.91
  A 0.64 0.64 0.0 0 0 166.42 320.46
  L 169.40 318.52
  A 0.64 0.64 0.0 0 0 169.68 318.04
  L 169.95 314.68
  A 0.64 0.64 0.0 0 0 168.98 314.09
  L 165.86 316.00
  Z
  M 173.71 314.06
  A 0.90 0.90 0.0 0 0 172.49 314.90
  L 172.48 319.11
  A 0.90 0.90 0.0 0 0 173.38 320.02
  L 177.43 320.04
  A 0.90 0.90 0.0 0 0 178.34 319.10
  L 178.22 316.36
  A 0.90 0.90 0.0 0 0 177.64 315.56
  L 173.71 314.06
  Z
  M 186.84 332.94
  Q 186.56 326.51 186.47 320.12
  Q 186.47 319.74 186.32 319.40
  Q 186.20 319.10 185.93 318.89
  Q 185.29 318.39 186.01 318.01
  Q 186.17 317.93 186.23 317.77
  Q 186.46 317.15 185.85 316.89
  L 182.19 315.32
  Q 181.41 314.99 181.49 315.83
  Q 181.52 316.20 181.68 316.51
  Q 181.98 317.08 182.62 317.23
  Q 183.77 317.50 184.73 317.93
  Q 185.63 318.34 184.64 318.29
  Q 183.28 318.22 182.26 317.51
  A 0.54 0.54 0.0 0 0 181.41 317.96
  L 181.72 355.16
  Q 181.72 355.76 182.31 355.87
  L 201.00 359.27
  Q 201.66 359.39 201.88 358.75
  Q 207.58 341.67 204.23 323.98
  Q 203.92 322.31 202.22 322.32
  Q 200.99 322.33 199.86 321.97
  Q 199.13 321.75 199.23 322.50
  C 199.49 324.42 201.69 324.75 203.23 325.11
  Q 203.36 325.14 203.33 325.27
  L 203.33 325.28
  Q 203.29 325.48 203.09 325.43
  Q 201.48 325.02 199.80 324.26
  A 0.56 0.55 -78.6 0 0 199.02 324.78
  Q 199.23 334.20 198.62 342.75
  Q 198.61 342.93 198.43 342.93
  L 198.42 342.93
  Q 198.17 342.94 198.16 342.69
  Q 197.52 334.36 197.05 323.27
  A 0.50 0.49 8.6 0 0 196.71 322.82
  L 189.32 320.32
  A 0.21 0.20 9.4 0 0 189.05 320.51
  Q 189.01 336.36 188.05 351.87
  Q 187.96 353.39 187.88 351.87
  Q 187.40 342.85 187.43 334.49
  Q 187.44 333.99 187.65 333.54
  Q 187.82 333.18 187.79 332.77
  Q 187.61 329.74 187.60 326.76
  Q 187.60 326.68 187.51 326.68
  L 187.51 326.68
  Q 187.37 326.68 187.37 326.82
  Q 187.42 329.64 186.97 332.95
  Q 186.87 333.72 186.84 332.94
  Z
  M 197.0405 321.7653
  A 0.85 0.85 0.0 0 0 196.5631 320.6620
  L 190.3522 318.2030
  A 0.85 0.85 0.0 0 0 189.2490 318.6804
  L 189.2195 318.7547
  A 0.85 0.85 0.0 0 0 189.6969 319.8580
  L 195.9078 322.3170
  A 0.85 0.85 0.0 0 0 197.0110 321.8396
  L 197.0405 321.7653
  Z
  M 162.70 322.39
  A 0.60 0.60 0.0 0 0 162.95 321.90
  L 162.90 318.92
  A 0.60 0.60 0.0 0 0 161.95 318.44
  L 157.92 321.32
  A 0.60 0.60 0.0 0 0 157.67 321.79
  L 157.60 324.87
  A 0.60 0.60 0.0 0 0 158.55 325.38
  L 162.70 322.39
  Z
  M 187.2262 323.1796
  A 1.29 0.17 91.5 0 0 187.4299 321.8945
  A 1.29 0.17 91.5 0 0 187.2938 320.6004
  A 1.29 0.17 91.5 0 0 187.0901 321.8855
  A 1.29 0.17 91.5 0 0 187.2262 323.1796
  Z
  M 172.81 332.00
  A 0.53 0.53 0.0 0 0 173.31 332.51
  L 177.47 332.72
  A 0.53 0.53 0.0 0 0 178.02 332.21
  L 178.26 322.78
  A 0.53 0.53 0.0 0 0 177.75 322.24
  L 173.18 322.04
  A 0.53 0.53 0.0 0 0 172.63 322.58
  L 172.81 332.00
  Z
  M 155.63 326.56
  A 0.67 0.67 0.0 0 0 155.91 326.03
  L 155.95 323.69
  A 0.67 0.67 0.0 0 0 154.90 323.13
  L 150.51 326.23
  A 0.67 0.67 0.0 0 0 150.23 326.76
  L 150.17 329.20
  A 0.67 0.67 0.0 0 0 151.23 329.76
  L 155.63 326.56
  Z
  M 173.00 344.40
  A 0.63 0.63 0.0 0 0 173.60 345.03
  L 177.11 345.17
  A 0.63 0.63 0.0 0 0 177.76 344.56
  L 177.97 335.20
  A 0.63 0.63 0.0 0 0 177.37 334.56
  L 173.59 334.34
  A 0.63 0.63 0.0 0 0 172.93 334.97
  L 173.00 344.40
  Z
  M 173.21 353.37
  A 0.64 0.64 0.0 0 0 173.72 353.98
  L 176.92 354.64
  A 0.64 0.64 0.0 0 0 177.69 354.03
  L 177.85 347.72
  A 0.64 0.64 0.0 0 0 177.24 347.06
  L 173.71 346.91
  A 0.64 0.64 0.0 0 0 173.04 347.57
  L 173.21 353.37
  Z
  M 132.83 349.45
  A 0.63 0.63 0.0 0 0 132.03 350.05
  L 132.06 386.24
  A 0.63 0.63 0.0 0 0 132.69 386.87
  L 168.37 386.60
  A 0.63 0.63 0.0 0 0 168.99 385.98
  L 169.16 360.26
  A 0.63 0.63 0.0 0 0 168.70 359.65
  L 132.83 349.45
  Z
  M 173.26 385.00
  A 0.35 0.35 0.0 0 0 173.70 385.33
  L 177.37 384.35
  A 0.35 0.35 0.0 0 0 177.63 384.01
  L 177.76 362.48
  A 0.35 0.35 0.0 0 0 177.50 362.14
  L 173.64 361.13
  A 0.35 0.35 0.0 0 0 173.20 361.47
  L 173.26 385.00
  Z
  M 181.21 363.77
  A 0.83 0.83 0.0 0 1 181.73 364.54
  L 181.76 381.70
  A 0.48 0.47 -13.5 0 0 182.45 382.12
  Q 191.60 377.41 197.42 368.34
  Q 197.78 367.76 197.12 367.61
  Q 189.22 365.81 180.82 363.00
  Q 180.10 362.75 180.59 363.33
  Q 180.86 363.63 181.21 363.77
  Z"
/>
<path fill="#0c3458" d="
  M 415.23 345.61
  C 414.47 330.73 413.71 315.83 413.76 300.81
  Q 413.86 273.06 413.74 246.05
  A 1.01 1.01 0.0 0 1 414.75 245.04
  L 466.03 245.03
  A 0.75 0.74 89.6 0 1 466.78 245.78
  L 466.75 421.52
  Q 466.75 422.88 465.90 421.83
  L 323.75 246.04
  Q 322.88 244.97 324.25 244.97
  L 336.26 245.00
  Q 336.88 245.00 337.26 245.49
  L 414.78 345.77
  A 0.25 0.25 0.0 0 0 415.23 345.61
  Z"
/>
<path fill="#0c3458" d="
  M 590.37 295.76
  Q 589.94 294.61 589.53 295.77
  L 580.90 320.35
  Q 580.70 320.91 580.12 320.97
  Q 565.41 322.55 554.52 333.25
  Q 550.19 337.50 545.81 342.36
  A 0.75 0.75 0.0 0 1 544.69 342.36
  Q 536.97 333.79 527.23 328.93
  C 524.91 327.77 522.51 327.10 520.07 326.29
  Q 519.17 325.99 520.11 325.83
  Q 529.98 324.11 539.84 325.98
  Q 540.46 326.10 540.68 325.51
  L 571.50 245.52
  A 0.78 0.78 0.0 0 1 572.23 245.02
  L 607.68 245.02
  A 0.93 0.92 79.3 0 1 608.54 245.61
  L 636.23 317.50
  Q 636.41 317.98 636.93 317.94
  Q 651.53 316.75 664.15 320.13
  Q 666.94 320.88 664.06 321.13
  C 649.22 322.43 635.52 330.69 626.28 342.17
  A 0.70 0.70 0.0 0 1 625.21 342.21
  Q 621.43 338.06 617.57 334.03
  Q 611.33 327.51 601.28 323.36
  C 600.02 322.83 599.57 321.94 599.16 320.71
  Q 594.64 307.16 590.37 295.76
  Z"
/>
<path fill="#0c3458" d="
  M 306.55 245.67
  L 313.67 254.32
  A 0.55 0.55 0.0 0 1 313.60 255.09
  L 311.27 257.01
  A 0.55 0.55 0.0 0 1 310.50 256.94
  L 301.66 246.40
  A 0.55 0.55 0.0 0 1 302.08 245.49
  L 306.12 245.47
  A 0.55 0.55 0.0 0 1 306.55 245.67
  Z"
/>
<path fill="#0f86d0" d="
  M 344.91 332.16
  Q 344.58 333.14 344.61 334.19
  Q 345.88 381.77 345.45 430.23
  A 0.76 0.76 0.0 0 1 344.69 430.98
  L 292.87 430.92
  Q 292.20 430.92 292.20 430.25
  L 292.10 254.06
  Q 292.09 252.19 293.27 253.64
  L 435.96 430.15
  A 0.49 0.49 0.0 0 1 435.58 430.95
  L 422.74 430.95
  Q 422.03 430.95 421.60 430.39
  L 345.44 332.07
  Q 345.09 331.62 344.91 332.16
  Z"
/>
<rect fill="#0c3458" x="-2.09" y="-7.01" transform="translate(321.09,266.48) rotate(-39.5)" width="4.18" height="14.02" rx="0.83"/>
<path fill="#0f86d0" d="
  M 90.36 339.14
  L 116.70 339.12
  A 0.97 0.97 0.0 0 1 117.67 340.07
  L 117.72 343.19
  A 0.97 0.97 0.0 0 1 116.75 344.18
  L 90.40 344.17
  A 0.97 0.97 0.0 0 0 89.43 345.14
  L 89.43 351.76
  A 0.97 0.97 0.0 0 0 90.40 352.73
  L 116.77 352.73
  A 0.97 0.97 0.0 0 1 117.74 353.71
  L 117.70 356.73
  A 0.97 0.97 0.0 0 1 116.74 357.69
  L 90.37 357.84
  A 0.97 0.97 0.0 0 0 89.40 358.83
  L 89.49 365.18
  A 0.97 0.97 0.0 0 0 90.45 366.13
  L 116.71 366.20
  A 0.97 0.97 0.0 0 1 117.68 367.13
  L 117.79 370.01
  A 0.97 0.97 0.0 0 1 116.82 371.02
  L 90.41 371.01
  A 0.97 0.97 0.0 0 0 89.44 371.99
  L 89.48 378.66
  A 0.97 0.97 0.0 0 0 90.45 379.62
  L 116.84 379.60
  A 0.97 0.97 0.0 0 1 117.81 380.57
  L 117.86 430.29
  A 0.97 0.97 0.0 0 1 116.89 431.26
  L 81.94 431.23
  A 0.97 0.97 0.0 0 1 80.97 430.26
  L 80.92 284.39
  A 0.97 0.97 0.0 0 1 81.43 283.54
  L 116.37 264.70
  A 0.97 0.97 0.0 0 1 117.80 265.55
  L 117.84 302.81
  A 0.97 0.97 0.0 0 1 116.87 303.78
  L 90.34 303.86
  A 0.97 0.97 0.0 0 0 89.37 304.83
  L 89.36 311.19
  A 0.97 0.97 0.0 0 0 90.33 312.16
  L 116.78 312.12
  A 0.97 0.97 0.0 0 1 117.75 313.12
  L 117.67 316.33
  A 0.97 0.97 0.0 0 1 116.70 317.27
  L 90.45 317.29
  A 0.97 0.97 0.0 0 0 89.48 318.26
  L 89.51 324.71
  A 0.97 0.97 0.0 0 0 90.47 325.67
  L 116.70 325.72
  A 0.97 0.97 0.0 0 1 117.67 326.67
  L 117.71 329.55
  A 0.97 0.97 0.0 0 1 116.75 330.53
  L 90.44 330.65
  A 0.97 0.97 0.0 0 0 89.48 331.60
  L 89.39 338.16
  A 0.97 0.97 0.0 0 0 90.36 339.14
  Z"
/>
<rect fill="#0c3458" x="-2.07" y="-7.00" transform="translate(334.18,282.31) rotate(-39.6)" width="4.14" height="14.00" rx="0.91"/>
<rect fill="#0c3458" x="-2.08" y="-6.95" transform="translate(347.25,298.09) rotate(-39.5)" width="4.16" height="13.90" rx="0.60"/>
<rect fill="#0c3458" x="-2.07" y="-6.90" transform="translate(360.38,313.94) rotate(-39.7)" width="4.14" height="13.80" rx="0.45"/>
<rect fill="#0c3458" x="-2.06" y="-6.94" transform="translate(373.46,329.74) rotate(-39.9)" width="4.12" height="13.88" rx="0.77"/>
<path fill="#0f86d0" d="
  M 668.27 330.85
  Q 657.49 333.00 648.41 339.22
  A 1.44 1.44 0.0 0 0 648.76 341.77
  L 651.07 342.55
  C 644.78 346.65 640.13 352.64 635.06 357.97
  Q 634.30 358.76 633.55 357.95
  L 628.55 352.52
  Q 627.92 351.83 628.55 351.13
  C 631.64 347.68 634.36 343.96 637.84 340.74
  Q 649.77 329.71 667.47 326.72
  Q 668.17 326.60 668.18 327.30
  L 668.27 330.85
  Z"
/>
<path fill="#0c3458" d="
  M 625.79 367.91
  L 619.62 361.01
  Q 619.49 360.86 619.30 360.94
  Q 619.18 361.00 619.06 361.07
  Q 619.05 360.80 619.00 360.56
  Q 618.95 360.34 618.75 360.13
  Q 612.44 353.51 606.13 346.86
  Q 595.28 335.44 579.63 338.39
  Q 573.23 339.60 568.86 343.40
  Q 562.79 348.66 554.02 358.57
  A 0.43 0.42 -44.6 0 1 553.39 358.57
  L 547.48 352.03
  Q 547.20 351.71 547.48 351.41
  Q 553.44 345.01 559.48 338.68
  C 566.35 331.49 576.93 327.41 587.05 327.92
  Q 602.21 328.68 612.32 339.33
  Q 624.02 351.67 636.22 364.87
  C 641.46 370.54 647.13 375.81 653.49 380.11
  Q 657.29 382.69 661.63 383.45
  A 0.56 0.56 0.0 0 1 661.83 384.47
  L 654.39 389.31
  A 0.98 0.97 -48.3 0 1 653.42 389.37
  Q 644.99 385.27 638.17 379.35
  Q 631.90 373.91 625.79 367.91
  Z"
/>
<path fill="#0c3458" d="
  M 143.43 330.27
  Q 142.79 333.94 142.91 337.65
  Q 142.91 337.80 142.76 337.81
  L 142.76 337.81
  Q 142.56 337.82 142.56 337.61
  Q 142.57 336.77 142.60 335.99
  Q 142.61 335.73 142.48 335.49
  Q 142.38 335.31 142.18 335.27
  Q 141.84 335.21 142.00 334.90
  Q 142.70 333.56 142.46 332.10
  Q 142.34 331.39 141.73 331.79
  Q 140.88 332.36 140.06 333.05
  Q 139.98 333.12 139.91 333.05
  L 139.90 333.05
  Q 139.77 332.93 139.90 332.81
  Q 141.47 331.27 143.43 330.27
  Z"
/>
<path fill="#0a7181" d="
  M 668.27 330.85
  L 668.20 335.61
  Q 668.20 336.12 667.69 336.23
  Q 658.72 338.10 651.07 342.55
  L 648.76 341.77
  A 1.44 1.44 0.0 0 1 648.41 339.22
  Q 657.49 333.00 668.27 330.85
  Z"
/>
<path fill="#0f86d0" d="
  M 619.06 361.07
  Q 619.18 361.00 619.30 360.94
  Q 619.49 360.86 619.62 361.01
  L 625.79 367.91
  L 614.71 379.61
  Q 611.27 378.18 607.62 381.47
  Q 605.26 383.59 604.96 383.81
  Q 603.09 385.17 601.87 385.62
  Q 599.37 386.56 593.83 387.97
  Q 590.26 388.88 586.96 388.84
  Q 582.93 388.79 579.39 388.21
  Q 568.37 386.39 560.83 378.80
  Q 548.10 365.97 531.70 348.05
  Q 524.94 340.65 513.70 333.80
  L 517.23 332.15
  Q 517.72 331.92 518.20 332.15
  C 520.28 333.12 522.41 334.00 524.34 335.30
  Q 533.84 341.74 540.80 349.18
  Q 552.64 361.83 564.72 374.52
  C 567.81 377.77 571.24 380.48 575.56 382.05
  Q 587.57 386.44 598.76 380.64
  Q 602.77 378.56 609.12 371.84
  Q 614.15 366.52 619.06 361.07
  Z"
/>
<path fill="#0a7181" d="
  M 513.70 333.80
  Q 524.94 340.65 531.70 348.05
  Q 548.10 365.97 560.83 378.80
  Q 568.37 386.39 579.39 388.21
  Q 582.93 388.79 586.96 388.84
  Q 590.26 388.88 593.83 387.97
  Q 599.37 386.56 601.87 385.62
  Q 603.09 385.17 604.96 383.81
  Q 605.26 383.59 607.62 381.47
  Q 611.27 378.18 614.71 379.61
  Q 602.60 393.77 585.54 393.81
  C 574.92 393.83 565.61 389.28 558.38 381.64
  Q 552.11 375.02 545.37 367.91
  L 538.57 360.74
  Q 534.13 355.83 529.65 351.36
  Q 522.76 344.49 514.69 340.10
  Q 511.78 338.52 508.42 338.01
  A 0.32 0.32 0.0 0 1 508.24 337.47
  Q 510.88 334.76 513.70 333.80
  Z"
/>
<rect fill="#0c3458" x="-2.08" y="-6.98" transform="translate(386.53,345.53) rotate(-39.5)" width="4.16" height="13.96" rx="0.80"/>
<rect fill="#0c3458" x="583.73" y="340.07" width="5.04" height="39.84" rx="0.63"/>
<path fill="#0f86d0" d="
  M 664.51 343.17
  L 664.51 379.62
  A 0.68 0.68 0.0 0 1 663.70 380.29
  L 660.07 379.58
  A 0.68 0.68 0.0 0 1 659.52 378.91
  L 659.50 344.73
  A 0.68 0.68 0.0 0 1 659.91 344.10
  L 663.56 342.54
  A 0.68 0.68 0.0 0 1 664.51 343.17
  Z"
/>
<path fill="#0c3458" d="
  M 198.26 345.98
  Q 198.03 345.26 198.29 344.49
  Q 198.38 344.22 198.28 343.96
  Q 198.21 343.74 198.29 343.53
  Q 198.50 342.91 198.49 343.57
  Q 198.47 345.26 198.37 346.78
  Q 198.36 346.87 198.27 346.89
  Q 198.23 346.89 198.18 346.89
  Q 198.09 346.87 198.11 346.79
  Q 198.13 346.64 198.20 346.52
  Q 198.36 346.26 198.26 345.98
  Z"
/>
<path fill="#0c3458" d="
  M 565.71 371.52
  L 565.72 349.83
  A 0.75 0.75 0.0 0 1 565.93 349.30
  L 569.36 345.82
  A 0.75 0.75 0.0 0 1 570.64 346.34
  L 570.67 374.26
  A 0.75 0.75 0.0 0 1 569.45 374.85
  L 565.99 372.11
  A 0.75 0.75 0.0 0 1 565.71 371.52
  Z"
/>
<path fill="#0c3458" d="
  M 605.80 350.12
  L 605.84 371.17
  A 0.50 0.50 0.0 0 1 605.66 371.56
  L 601.79 374.76
  A 0.50 0.50 0.0 0 1 600.97 374.37
  L 600.91 346.13
  A 0.50 0.50 0.0 0 1 601.77 345.78
  L 605.66 349.77
  A 0.50 0.50 0.0 0 1 605.80 350.12
  Z"
/>
<path fill="#0c3458" d="
  M 148.79 349.44
  C 147.95 349.62 147.13 349.79 146.33 349.38
  C 145.09 348.75 143.86 349.02 142.57 348.66
  Q 139.47 347.79 136.42 346.93
  A 0.04 0.03 54.6 0 1 136.43 346.86
  Q 139.10 347.14 141.64 347.89
  C 143.26 348.37 144.78 348.25 146.30 349.10
  Q 146.72 349.34 147.21 349.25
  Q 148.03 349.10 148.79 349.44
  Z"
/>
<path fill="#0f86d0" d="
  M 515.85 373.32
  L 515.87 348.05
  A 0.50 0.50 0.0 0 1 516.73 347.70
  L 520.63 351.75
  A 0.50 0.50 0.0 0 1 520.77 352.10
  L 520.76 369.08
  A 0.50 0.50 0.0 0 1 520.63 369.42
  L 516.72 373.66
  A 0.50 0.50 0.0 0 1 515.85 373.32
  Z"
/>
<path fill="#0f86d0" d="
  M 646.56 369.91
  L 646.53 353.02
  A 0.63 0.63 0.0 0 1 646.77 352.53
  L 650.54 349.49
  A 0.63 0.63 0.0 0 1 651.57 349.99
  L 651.56 374.03
  A 0.63 0.63 0.0 0 1 650.46 374.45
  L 646.72 370.33
  A 0.63 0.63 0.0 0 1 646.56 369.91
  Z"
/>
<rect fill="#0c3458" x="-2.09" y="-6.94" transform="translate(399.60,361.32) rotate(-39.4)" width="4.18" height="13.88" rx="0.44"/>
<path fill="#0c3458" d="
  M 538.57 360.74
  L 545.37 367.91
  Q 538.67 374.76 532.19 381.70
  C 524.94 389.47 515.20 393.91 504.57 393.78
  Q 500.44 393.73 496.52 393.87
  A 0.50 0.49 -0.6 0 1 496.01 393.38
  L 496.00 384.48
  A 0.58 0.57 -88.2 0 1 496.61 383.90
  Q 504.07 384.32 507.86 383.76
  Q 517.38 382.35 523.00 377.30
  Q 527.63 373.14 538.57 360.74
  Z"
/>
<rect fill="#0c3458" x="-2.09" y="-6.96" transform="translate(412.71,377.15) rotate(-39.8)" width="4.18" height="13.92" rx="0.62"/>
<path fill="#0f86d0" d="
  M 507.95 408.62
  Q 505.91 407.55 503.69 406.67
  C 500.63 405.45 497.85 403.77 495.24 401.81
  Q 494.28 401.10 495.46 401.25
  C 503.65 402.30 511.88 402.40 519.82 399.53
  Q 535.50 393.85 544.89 379.41
  A 0.59 0.59 0.0 0 1 545.82 379.33
  C 553.31 387.40 560.66 394.88 570.34 400.14
  Q 571.39 400.71 570.20 400.72
  Q 564.10 400.77 557.41 399.29
  Q 555.78 398.92 554.16 398.71
  A 1.15 1.15 0.0 0 0 552.93 399.47
  L 542.40 429.42
  Q 542.11 430.27 541.21 430.27
  L 501.48 430.24
  A 0.76 0.76 0.0 0 1 500.77 429.21
  L 508.32 409.60
  A 0.79 0.79 0.0 0 0 507.95 408.62
  Z"
/>
<path fill="#0f86d0" d="
  M 629.14 405.38
  A 0.81 0.81 0.0 0 0 628.13 404.88
  C 614.09 409.51 601.27 411.02 587.20 405.58
  Q 584.53 404.55 582.23 402.97
  Q 581.52 402.48 582.38 402.47
  Q 591.80 402.29 595.57 401.30
  C 608.40 397.92 617.92 390.23 625.66 379.48
  Q 626.01 379.00 626.40 379.46
  C 634.25 388.75 645.82 398.16 658.73 395.72
  Q 666.35 394.29 672.75 388.62
  Q 674.23 387.30 675.71 386.04
  Q 676.31 385.53 676.10 386.29
  Q 674.02 394.03 668.60 399.75
  A 1.16 1.14 56.4 0 0 668.37 400.95
  L 679.24 429.18
  A 0.80 0.80 0.0 0 1 678.49 430.27
  L 639.29 430.24
  A 1.99 1.99 0.0 0 1 637.41 428.91
  L 629.14 405.38
  Z"
/>
<rect fill="#0c3458" x="-2.08" y="-6.99" transform="translate(425.77,392.96) rotate(-39.6)" width="4.16" height="13.98" rx="0.84"/>
<path fill="#0c3458" d="
  M 441.28 414.95
  L 433.23 405.16
  A 0.55 0.55 0.0 0 1 433.28 404.40
  L 435.60 402.33
  A 0.55 0.55 0.0 0 1 436.39 402.39
  L 444.62 412.46
  A 0.55 0.55 0.0 0 1 444.52 413.25
  L 442.03 415.05
  A 0.55 0.55 0.0 0 1 441.28 414.95
  Z"
/>
<path fill="#0c3458" d="
  M 454.91 431.36
  L 446.16 420.83
  A 0.34 0.34 0.0 0 1 446.20 420.36
  L 448.82 418.07
  A 0.34 0.34 0.0 0 1 449.30 418.11
  L 459.94 430.97
  A 0.34 0.34 0.0 0 1 459.68 431.52
  L 455.17 431.48
  A 0.34 0.34 0.0 0 1 454.91 431.36
  Z"
/>
<path fill="#659447" d="
  M 692.17 482.61
  Q 696.93 474.03 703.93 467.58
  Q 705.07 466.52 703.66 467.17
  Q 694.27 471.49 688.41 480.82
  C 688.03 469.18 683.16 460.86 675.07 453.21
  C 673.20 451.44 670.00 445.96 674.14 444.44
  Q 677.18 443.32 679.76 445.76
  Q 690.34 455.75 691.29 471.02
  Q 691.37 472.30 692.06 471.22
  Q 700.64 457.97 717.61 456.20
  Q 719.02 456.06 717.88 456.90
  Q 713.69 459.98 711.66 465.34
  C 709.92 469.95 708.31 474.37 704.66 477.93
  Q 700.32 482.16 692.17 482.61
  Z"
/>
<path fill="#0c3458" d="
  M 276.22 454.29
  A 0.23 0.23 0.0 0 1 276.42 454.04
  L 276.57 454.02
  A 8.64 1.00 -6.7 0 1 285.27 454.00
  L 285.27 454.04
  A 8.64 1.00 -6.7 0 1 276.81 456.04
  L 276.66 456.06
  A 0.23 0.23 0.0 0 1 276.40 455.86
  L 276.22 454.29
  Z"
/>
<path fill="#0c3458" d="
  M 548.24 454.37
  A 0.43 0.43 0.0 0 1 548.61 453.89
  L 548.70 453.88
  A 8.66 1.12 -6.9 0 1 557.43 453.95
  L 557.44 453.99
  A 8.66 1.12 -6.9 0 1 548.98 456.14
  L 548.89 456.15
  A 0.43 0.43 0.0 0 1 548.41 455.78
  L 548.24 454.37
  Z"
/>
<path fill="#0c3458" d="
  M 276.54 457.30
  A 2.36 2.32 -22.3 0 0 277.86 457.84
  Q 284.05 458.30 289.06 455.87
  A 1.42 1.41 -5.3 0 0 289.81 454.97
  L 289.90 454.59
  Q 290.12 453.77 290.73 454.37
  L 291.07 454.70
  Q 291.49 455.10 291.31 455.66
  Q 290.75 457.43 289.00 458.17
  Q 280.43 461.77 273.82 460.79
  Q 271.58 460.45 272.63 458.45
  C 273.39 457.01 275.10 456.10 276.54 457.30
  Z"
/>
<path fill="#0c3458" d="
  M 550.50 457.92
  C 552.85 458.02 561.60 457.41 562.10 454.42
  A 0.38 0.37 -59.8 0 1 562.76 454.24
  L 563.21 454.80
  Q 563.53 455.21 563.40 455.71
  Q 562.97 457.26 561.51 457.96
  Q 554.53 461.26 546.05 460.99
  A 1.64 1.64 0.0 0 1 544.53 458.91
  Q 545.05 457.08 547.12 456.74
  Q 547.76 456.63 548.29 457.00
  C 548.94 457.45 549.69 457.89 550.50 457.92
  Z"
/>
<path fill="#0c3458" d="
  M 275.49 462.90
  Q 273.90 463.69 275.67 463.73
  C 279.60 463.84 292.11 463.06 294.79 458.62
  Q 295.20 457.93 295.31 458.73
  C 296.06 464.07 283.10 466.49 278.57 466.84
  Q 274.57 467.15 271.24 466.31
  A 0.83 0.82 -81.6 0 1 270.61 465.46
  L 270.74 463.08
  Q 270.76 462.63 271.18 462.44
  Q 273.44 461.42 275.82 462.12
  Q 276.74 462.40 275.85 462.75
  Q 275.66 462.82 275.49 462.90
  Z"
/>
<path fill="#0c3458" d="
  M 546.82 463.52
  Q 546.99 463.77 547.30 463.78
  C 551.53 463.84 564.79 462.95 566.76 458.67
  Q 567.05 458.05 567.39 458.64
  Q 567.56 458.93 567.52 459.26
  C 566.83 465.54 548.62 467.97 544.06 466.49
  A 2.27 2.27 0.0 0 1 543.73 462.31
  Q 545.35 461.48 547.85 462.08
  Q 548.56 462.25 547.97 462.69
  Q 547.53 463.02 546.98 463.12
  Q 546.60 463.20 546.82 463.52
  Z"
/>
<path fill="#0f86d0" d="
  M 95.92 507.36
  L 95.90 523.94
  Q 95.89 524.73 96.69 524.73
  L 139.18 524.74
  Q 139.87 524.74 139.88 525.43
  L 139.96 538.22
  Q 139.96 539.01 139.17 539.00
  Q 114.22 538.95 87.10 539.04
  Q 84.41 539.05 82.00 538.80
  A 0.81 0.80 3.2 0 1 81.28 538.00
  L 81.30 461.96
  A 0.99 0.99 0.0 0 1 82.29 460.97
  L 139.53 460.96
  A 0.44 0.43 90.0 0 1 139.96 461.40
  L 139.95 474.41
  Q 139.95 475.03 139.34 475.03
  L 96.46 475.01
  Q 95.92 475.01 95.92 475.54
  L 95.93 492.72
  Q 95.93 493.25 96.47 493.25
  L 137.53 493.26
  Q 138.20 493.26 138.23 493.93
  Q 138.54 500.00 138.17 506.27
  A 0.74 0.74 0.0 0 1 137.43 506.97
  L 96.40 506.88
  Q 95.92 506.88 95.92 507.36
  Z"
/>
<path fill="#0c3458" d="
  M 276.06 469.60
  Q 276.48 469.83 276.93 469.84
  Q 286.40 470.17 294.32 466.32
  Q 295.84 465.58 297.08 464.27
  Q 297.57 463.76 297.58 464.47
  C 297.66 467.58 293.63 469.82 290.93 470.60
  Q 282.57 473.01 277.23 473.03
  Q 275.26 473.04 273.50 472.44
  Q 271.72 471.83 271.25 469.64
  Q 271.09 468.93 271.77 468.67
  Q 273.98 467.82 276.43 468.21
  Q 277.66 468.41 276.47 468.79
  L 276.13 468.90
  Q 275.27 469.17 276.06 469.60
  Z"
/>
<path fill="#0c3458" d="
  M 548.20 469.09
  Q 547.91 469.84 548.72 469.86
  C 555.47 470.08 564.15 468.83 569.22 464.29
  A 0.24 0.24 0.0 0 1 569.63 464.47
  C 569.60 467.67 565.81 469.78 563.05 470.57
  Q 554.98 472.89 549.21 473.07
  Q 547.59 473.12 545.63 472.44
  Q 543.74 471.79 543.31 469.54
  Q 543.20 468.93 543.77 468.71
  Q 546.23 467.77 548.66 468.31
  Q 549.64 468.52 548.66 468.70
  Q 548.33 468.76 548.20 469.09
  Z"
/>
<path fill="#0c3458" d="
  M 692.17 482.61
  L 690.85 485.29
  Q 688.86 484.96 687.76 482.45
  L 688.41 480.82
  Q 694.27 471.49 703.66 467.17
  Q 705.07 466.52 703.93 467.58
  Q 696.93 474.03 692.17 482.61
  Z"
/>
<path fill="#0c3458" d="
  M 554.39 478.01
  Q 554.69 478.34 555.19 478.34
  Q 556.13 478.33 555.22 478.56
  Q 552.86 479.15 551.29 477.64
  A 1.82 1.79 -17.3 0 0 550.36 477.16
  Q 548.10 476.73 546.57 474.86
  A 0.59 0.58 62.0 0 1 546.85 473.93
  Q 548.91 473.30 550.58 474.57
  C 551.68 475.40 553.53 475.09 554.78 474.98
  Q 560.77 474.43 565.64 472.52
  C 566.61 472.14 567.33 471.56 568.08 470.85
  Q 568.90 470.07 568.34 471.06
  Q 566.99 473.40 565.52 474.04
  Q 560.51 476.21 554.68 477.17
  A 0.51 0.50 64.1 0 0 554.39 478.01
  Z"
/>
<path fill="#0c3458" d="
  M 282.21 477.90
  Q 282.48 478.65 283.74 478.36
  Q 283.91 478.32 283.93 478.49
  L 283.93 478.50
  Q 283.95 478.74 283.71 478.75
  C 282.37 478.76 280.74 478.89 279.63 478.04
  C 277.94 476.74 275.16 476.71 274.44 474.48
  A 0.51 0.51 0.0 0 1 274.80 473.82
  Q 276.92 473.33 278.41 474.53
  C 279.18 475.15 280.30 475.15 281.24 475.08
  Q 286.56 474.70 291.62 473.19
  Q 294.13 472.45 296.25 470.75
  A 0.07 0.07 0.0 0 1 296.36 470.83
  C 295.63 472.49 294.32 473.83 292.58 474.46
  Q 287.46 476.35 282.60 477.23
  A 0.51 0.50 75.5 0 0 282.21 477.90
  Z"
/>
<path fill="#0c3458" d="
  M 289.47 477.63
  Q 290.37 477.62 289.50 477.83
  Q 287.55 478.30 285.05 478.34
  Q 284.85 478.34 285.05 478.29
  Q 287.22 477.68 289.47 477.63
  Z"
/>
<path fill="#0c3458" d="
  M 561.57 477.62
  Q 562.22 477.54 561.61 477.78
  Q 559.80 478.49 557.87 478.12
  A 0.02 0.01 46.4 0 1 557.87 478.09
  L 561.57 477.62
  Z"
/>
<path fill="#0f86d0" d="
  M 258.87 531.29
  Q 260.76 532.51 262.57 533.92
  C 269.86 539.62 270.80 550.02 267.61 558.03
  Q 263.89 567.39 255.07 571.03
  Q 241.75 576.53 228.73 571.24
  C 219.68 567.57 213.82 559.71 213.68 549.92
  A 0.82 0.81 89.7 0 1 214.49 549.09
  L 226.03 549.12
  Q 226.70 549.13 226.84 549.78
  C 229.11 560.70 241.91 563.76 250.65 558.38
  C 256.68 554.66 257.20 545.10 251.48 540.92
  Q 247.72 538.18 243.66 538.18
  C 228.86 538.15 217.69 532.37 214.21 517.38
  C 213.25 513.21 213.37 506.86 214.46 502.71
  C 218.57 486.93 233.98 479.21 249.49 483.14
  C 251.02 483.53 252.46 484.42 253.96 484.94
  Q 254.43 485.10 254.75 484.71
  L 259.30 478.98
  Q 259.70 478.48 260.21 478.86
  L 269.17 485.54
  A 0.91 0.91 0.0 0 1 269.29 486.89
  C 267.58 488.72 265.24 491.14 264.17 493.47
  Q 263.96 493.91 264.24 494.32
  Q 273.95 508.41 266.10 523.18
  Q 263.82 527.47 258.89 530.39
  Q 258.16 530.82 258.87 531.29
  Z
  M 241.6635 525.7191
  A 15.61 14.52 89.4 0 0 256.0192 509.9579
  A 15.61 14.52 89.4 0 0 241.3365 494.5009
  A 15.61 14.52 89.4 0 0 226.9808 510.2621
  A 15.61 14.52 89.4 0 0 241.6635 525.7191
  Z"
/>
<path fill="#0f86d0" d="
  M 382.05 517.26
  Q 382.23 519.14 383.11 520.60
  C 389.30 530.85 404.45 529.73 412.80 523.51
  Q 413.30 523.14 413.75 523.58
  L 421.39 531.25
  A 0.59 0.58 46.0 0 1 421.38 532.09
  C 413.18 539.89 400.19 542.16 389.61 539.77
  Q 375.10 536.48 370.02 523.75
  Q 366.76 515.61 368.26 505.68
  C 371.39 484.93 394.11 477.21 411.39 485.38
  C 422.84 490.79 426.24 503.77 425.07 515.72
  A 0.89 0.88 -87.1 0 1 424.19 516.52
  L 382.71 516.53
  Q 381.98 516.53 382.05 517.26
  Z
  M 382.77 505.38
  L 411.55 505.08
  A 0.14 0.14 0.0 0 0 411.68 504.94
  L 411.68 504.83
  A 14.43 10.55 -0.6 0 0 397.14 494.43
  L 396.94 494.43
  A 14.43 10.55 -0.6 0 0 382.62 505.13
  L 382.63 505.24
  A 0.14 0.14 0.0 0 0 382.77 505.38
  Z"
/>
<path fill="#0f86d0" d="
  M 447.22 517.20
  C 449.20 526.18 458.51 529.15 466.73 527.99
  Q 473.26 527.06 478.05 523.51
  Q 478.55 523.15 478.98 523.58
  L 486.17 530.77
  A 1.36 1.35 -42.3 0 1 486.07 532.77
  C 477.83 539.61 466.08 542.11 455.55 539.95
  C 437.89 536.33 430.68 521.02 433.74 504.19
  C 435.20 496.18 440.83 488.88 448.40 485.28
  Q 455.16 482.07 463.14 482.24
  C 477.50 482.55 488.08 490.44 490.04 505.06
  Q 490.73 510.16 490.24 515.88
  A 0.70 0.69 -87.3 0 1 489.55 516.51
  L 447.76 516.53
  A 0.55 0.55 0.0 0 0 447.22 517.20
  Z
  M 448.03 505.32
  L 476.99 505.32
  A 0.19 0.19 0.0 0 0 477.18 505.13
  L 477.18 505.07
  A 14.53 10.59 -0.0 0 0 462.65 494.48
  L 462.37 494.48
  A 14.53 10.59 0.0 0 0 447.84 505.07
  L 447.84 505.13
  A 0.19 0.19 0.0 0 0 448.03 505.32
  Z"
/>
<path fill="#0f86d0" d="
  M 687.76 482.45
  Q 688.86 484.96 690.85 485.29
  L 688.97 492.91
  A 2.04 2.04 0.0 0 0 689.31 494.61
  Q 696.50 504.28 693.54 517.15
  Q 691.63 525.48 683.56 530.49
  Q 682.92 530.89 683.57 531.27
  C 689.68 534.79 693.41 539.20 694.07 546.47
  C 695.33 560.31 687.07 569.98 673.76 573.01
  Q 663.85 575.28 653.81 571.24
  Q 648.18 568.98 644.66 565.09
  C 641.27 561.34 638.23 555.08 638.53 549.69
  Q 638.57 548.97 639.29 548.98
  L 651.20 549.13
  Q 651.94 549.14 652.05 549.87
  C 652.78 554.64 655.52 557.95 659.95 559.72
  Q 668.69 563.19 676.26 557.97
  C 678.38 556.51 679.97 553.69 680.35 551.14
  Q 681.47 543.67 675.29 540.04
  C 671.19 537.63 666.18 538.05 661.70 537.57
  Q 652.23 536.55 646.12 530.55
  C 639.48 524.03 637.10 512.81 639.22 503.69
  Q 641.34 494.52 647.48 489.13
  Q 654.36 483.09 664.02 482.24
  Q 672.78 481.47 678.85 485.07
  A 1.29 1.29 0.0 0 0 679.92 485.18
  L 687.76 482.45
  Z
  M 666.4554 525.7599
  A 15.64 14.55 90.2 0 0 681.0599 510.1708
  A 15.64 14.55 90.2 0 0 666.5646 494.4801
  A 15.64 14.55 90.2 0 0 651.9601 510.0692
  A 15.64 14.55 90.2 0 0 666.4554 525.7599
  Z"
/>
<path fill="#0f86d0" d="
  M 515.23 489.19
  C 517.64 485.39 522.55 483.02 526.80 482.56
  Q 535.78 481.61 543.27 486.96
  Q 544.29 487.69 543.71 488.81
  L 538.44 498.83
  Q 538.11 499.46 537.51 499.07
  Q 529.62 493.80 520.83 497.85
  C 516.59 499.80 514.34 504.65 514.33 509.26
  Q 514.31 524.60 514.37 538.14
  Q 514.38 539.02 513.49 539.02
  L 501.56 538.96
  A 0.65 0.65 0.0 0 1 500.92 538.31
  L 500.85 484.70
  Q 500.85 483.99 501.55 484.00
  L 512.73 484.05
  Q 513.42 484.05 513.57 484.73
  L 514.48 489.05
  Q 514.68 490.05 515.23 489.19
  Z"
/>
<path fill="#0f86d0" d="
  M 163.87 490.59
  C 170.52 484.34 179.28 481.28 188.26 484.18
  C 199.21 487.71 204.49 498.03 204.56 509.17
  Q 204.65 523.88 204.73 538.33
  A 0.70 0.70 0.0 0 1 204.03 539.03
  L 191.57 538.99
  A 0.78 0.77 -89.6 0 1 190.80 538.20
  Q 191.00 522.91 190.93 510.28
  C 190.90 503.90 188.55 498.21 181.94 496.21
  Q 174.45 493.94 168.43 499.12
  C 164.69 502.33 163.44 507.45 163.49 512.67
  Q 163.61 526.34 163.50 538.35
  A 0.72 0.71 0.4 0 1 162.78 539.05
  L 150.55 538.93
  A 0.63 0.63 0.0 0 1 149.93 538.30
  L 149.94 484.66
  Q 149.94 484.01 150.59 484.01
  L 161.52 484.01
  A 0.71 0.70 86.8 0 1 162.22 484.64
  L 162.89 490.23
  Q 163.02 491.38 163.87 490.59
  Z"
/>
<path fill="#0f86d0" d="
  M 317.62 490.67
  C 323.28 485.18 330.50 482.18 338.23 483.31
  C 347.94 484.73 354.00 490.96 357.09 499.97
  Q 358.45 503.93 358.43 510.42
  Q 358.37 524.21 358.41 538.36
  A 0.64 0.63 90.0 0 1 357.77 539.01
  L 345.74 538.99
  A 0.83 0.83 0.0 0 1 344.91 538.15
  Q 345.03 524.45 344.98 510.99
  Q 344.96 506.13 342.73 501.74
  C 339.98 496.35 332.99 494.51 327.62 496.16
  Q 321.01 498.20 318.64 504.36
  Q 317.31 507.82 317.41 515.06
  Q 317.59 527.72 317.40 538.41
  A 0.63 0.62 -89.1 0 1 316.77 539.03
  L 304.80 538.97
  A 0.92 0.92 0.0 0 1 303.89 538.05
  L 303.84 484.60
  Q 303.84 484.01 304.43 484.00
  L 315.15 483.90
  Q 315.93 483.90 316.05 484.66
  L 316.99 490.46
  A 0.38 0.37 -26.4 0 0 317.62 490.67
  Z"
/>
<path fill="#0f86d0" d="
  M 588.80 490.75
  C 596.22 483.65 605.74 480.88 615.44 484.97
  C 625.43 489.19 629.67 499.81 629.68 510.25
  Q 629.68 524.76 629.68 538.23
  A 0.72 0.72 0.0 0 1 628.96 538.95
  L 616.74 539.04
  A 0.65 0.65 0.0 0 1 616.09 538.40
  Q 615.95 526.26 616.12 513.79
  C 616.24 505.67 614.54 497.87 605.95 495.93
  Q 600.02 494.59 594.86 497.98
  Q 588.62 502.07 588.55 511.86
  Q 588.46 525.75 588.56 538.46
  A 0.54 0.54 0.0 0 1 588.01 539.01
  L 575.40 538.94
  A 0.41 0.41 0.0 0 1 574.99 538.53
  L 574.87 484.69
  Q 574.87 484.01 575.56 484.00
  L 586.54 483.97
  Q 587.11 483.96 587.19 484.53
  L 588.02 490.48
  A 0.47 0.46 -25.6 0 0 588.80 490.75
  Z"
/>
<rect fill="#0f86d0" x="278.13" y="483.79" width="13.70" height="55.20" rx="0.74"/>
<rect fill="#0f86d0" x="549.37" y="483.83" width="13.42" height="55.14" rx="0.70"/>
</svg>
